<svg width="22" height="29" viewBox="0 0 22 29" fill="none" xmlns="http://www.w3.org/2000/svg">
<path d="M10.875 14.5C12.3089 14.5 13.7106 14.0748 14.9029 13.2782C16.0951 12.4815 17.0244 11.3492 17.5731 10.0245C18.1219 8.69969 18.2654 7.24196 17.9857 5.8356C17.706 4.42924 17.0155 3.13741 16.0015 2.12348C14.9876 1.10955 13.6958 0.419053 12.2894 0.13931C10.883 -0.140433 9.42531 0.00314132 8.10055 0.551877C6.77578 1.10061 5.64349 2.02986 4.84685 3.22212C4.05021 4.41438 3.625 5.81609 3.625 7.25C3.62692 9.17223 4.39137 11.0152 5.7506 12.3744C7.10982 13.7336 8.95277 14.4981 10.875 14.5ZM10.875 2.41667C11.8309 2.41667 12.7654 2.70014 13.5603 3.23123C14.3551 3.76233 14.9746 4.51719 15.3404 5.40037C15.7062 6.28354 15.802 7.25537 15.6155 8.19294C15.429 9.13052 14.9686 9.99173 14.2927 10.6677C13.6167 11.3436 12.7555 11.804 11.8179 11.9905C10.8804 12.177 9.90854 12.0812 9.02536 11.7154C8.14219 11.3496 7.38732 10.7301 6.85623 9.93526C6.32514 9.14042 6.04167 8.20595 6.04167 7.25C6.04167 5.96812 6.55089 4.73875 7.45732 3.83232C8.36374 2.92589 9.59312 2.41667 10.875 2.41667Z" fill="#393939"/>
<path d="M10.875 16.9166C7.99175 16.9198 5.22751 18.0666 3.18875 20.1054C1.14998 22.1441 0.00319828 24.9084 0 27.7916C0 28.1121 0.127306 28.4194 0.353913 28.646C0.580519 28.8727 0.887863 29 1.20833 29C1.5288 29 1.83615 28.8727 2.06275 28.646C2.28936 28.4194 2.41667 28.1121 2.41667 27.7916C2.41667 25.5483 3.30781 23.3969 4.89406 21.8107C6.4803 20.2244 8.63171 19.3333 10.875 19.3333C13.1183 19.3333 15.2697 20.2244 16.8559 21.8107C18.4422 23.3969 19.3333 25.5483 19.3333 27.7916C19.3333 28.1121 19.4606 28.4194 19.6872 28.646C19.9139 28.8727 20.2212 29 20.5417 29C20.8621 29 21.1695 28.8727 21.3961 28.646C21.6227 28.4194 21.75 28.1121 21.75 27.7916C21.7468 24.9084 20.6 22.1441 18.5613 20.1054C16.5225 18.0666 13.7582 16.9198 10.875 16.9166Z" fill="#393939"/>
</svg>
