<svg width="29" height="29" viewBox="0 0 29 29" fill="none" xmlns="http://www.w3.org/2000/svg">
<g clip-path="url(#clip0_22_144)">
<path d="M20.5417 16.9167C20.5417 17.2372 20.4144 17.5445 20.1878 17.7711C19.9612 17.9977 19.6539 18.125 19.3334 18.125H9.66675C9.34628 18.125 9.03893 17.9977 8.81233 17.7711C8.58572 17.5445 8.45842 17.2372 8.45842 16.9167C8.45842 16.5962 8.58572 16.2889 8.81233 16.0623C9.03893 15.8357 9.34628 15.7084 9.66675 15.7084H19.3334C19.6539 15.7084 19.9612 15.8357 20.1878 16.0623C20.4144 16.2889 20.5417 16.5962 20.5417 16.9167ZM15.7084 20.5417H9.66675C9.34628 20.5417 9.03893 20.669 8.81233 20.8956C8.58572 21.1222 8.45842 21.4296 8.45842 21.75C8.45842 22.0705 8.58572 22.3778 8.81233 22.6044C9.03893 22.8311 9.34628 22.9584 9.66675 22.9584H15.7084C16.0289 22.9584 16.3362 22.8311 16.5628 22.6044C16.7894 22.3778 16.9167 22.0705 16.9167 21.75C16.9167 21.4296 16.7894 21.1222 16.5628 20.8956C16.3362 20.669 16.0289 20.5417 15.7084 20.5417ZM26.5834 12.6694V22.9584C26.5815 24.5601 25.9444 26.0957 24.8117 27.2283C23.6791 28.361 22.1435 28.9981 20.5417 29H8.45842C6.85665 28.9981 5.32105 28.361 4.18843 27.2283C3.05581 26.0957 2.41867 24.5601 2.41675 22.9584V6.04169C2.41867 4.43993 3.05581 2.90433 4.18843 1.77171C5.32105 0.639093 6.85665 0.00194651 8.45842 2.78505e-05H13.914C15.0252 -0.00283218 16.126 0.214613 17.1526 0.639791C18.1793 1.06497 19.1115 1.68944 19.8953 2.47711L24.1051 6.68936C24.8932 7.47265 25.5181 8.40454 25.9435 9.43104C26.3689 10.4575 26.5864 11.5582 26.5834 12.6694ZM18.1867 4.18569C17.8064 3.81735 17.3795 3.50048 16.9167 3.24319V8.45836C16.9167 8.77883 17.0441 9.08617 17.2707 9.31278C17.4973 9.53939 17.8046 9.66669 18.1251 9.66669H23.3402C23.0828 9.20413 22.7655 8.77754 22.3965 8.39794L18.1867 4.18569ZM24.1667 12.6694C24.1667 12.47 24.1281 12.2791 24.11 12.0834H18.1251C17.1637 12.0834 16.2416 11.7014 15.5618 11.0216C14.882 10.3418 14.5001 9.41977 14.5001 8.45836V2.47349C14.3043 2.45536 14.1122 2.41669 13.914 2.41669H8.45842C7.497 2.41669 6.57497 2.79861 5.89515 3.47843C5.21533 4.15825 4.83341 5.08028 4.83341 6.04169V22.9584C4.83341 23.9198 5.21533 24.8418 5.89515 25.5216C6.57497 26.2014 7.497 26.5834 8.45842 26.5834H20.5417C21.5032 26.5834 22.4252 26.2014 23.105 25.5216C23.7848 24.8418 24.1667 23.9198 24.1667 22.9584V12.6694Z" fill="#393939"/>
</g>
<defs>
<clipPath id="clip0_22_144">
<rect width="29" height="29" fill="white"/>
</clipPath>
</defs>
</svg>
