<svg width="29" height="29" viewBox="0 0 29 29" fill="none" xmlns="http://www.w3.org/2000/svg">
<g clip-path="url(#clip0_22_180)">
<path d="M8.45833 0H4.83333C3.55145 0 2.32208 0.509225 1.41565 1.41565C0.509225 2.32208 0 3.55145 0 4.83333L0 8.45833C0 9.74021 0.509225 10.9696 1.41565 11.876C2.32208 12.7824 3.55145 13.2917 4.83333 13.2917H8.45833C9.74021 13.2917 10.9696 12.7824 11.876 11.876C12.7824 10.9696 13.2917 9.74021 13.2917 8.45833V4.83333C13.2917 3.55145 12.7824 2.32208 11.876 1.41565C10.9696 0.509225 9.74021 0 8.45833 0ZM10.875 8.45833C10.875 9.09927 10.6204 9.71396 10.1672 10.1672C9.71396 10.6204 9.09927 10.875 8.45833 10.875H4.83333C4.19239 10.875 3.5777 10.6204 3.12449 10.1672C2.67128 9.71396 2.41667 9.09927 2.41667 8.45833V4.83333C2.41667 4.19239 2.67128 3.5777 3.12449 3.12449C3.5777 2.67128 4.19239 2.41667 4.83333 2.41667H8.45833C9.09927 2.41667 9.71396 2.67128 10.1672 3.12449C10.6204 3.5777 10.875 4.19239 10.875 4.83333V8.45833Z" fill="#1C6FFF"/>
<path d="M24.1666 0H20.5416C19.2597 0 18.0303 0.509225 17.1239 1.41565C16.2175 2.32208 15.7083 3.55145 15.7083 4.83333V8.45833C15.7083 9.74021 16.2175 10.9696 17.1239 11.876C18.0303 12.7824 19.2597 13.2917 20.5416 13.2917H24.1666C25.4485 13.2917 26.6778 12.7824 27.5843 11.876C28.4907 10.9696 28.9999 9.74021 28.9999 8.45833V4.83333C28.9999 3.55145 28.4907 2.32208 27.5843 1.41565C26.6778 0.509225 25.4485 0 24.1666 0ZM26.5833 8.45833C26.5833 9.09927 26.3286 9.71396 25.8754 10.1672C25.4222 10.6204 24.8075 10.875 24.1666 10.875H20.5416C19.9006 10.875 19.286 10.6204 18.8327 10.1672C18.3795 9.71396 18.1249 9.09927 18.1249 8.45833V4.83333C18.1249 4.19239 18.3795 3.5777 18.8327 3.12449C19.286 2.67128 19.9006 2.41667 20.5416 2.41667H24.1666C24.8075 2.41667 25.4222 2.67128 25.8754 3.12449C26.3286 3.5777 26.5833 4.19239 26.5833 4.83333V8.45833Z" fill="#1C6FFF"/>
<path d="M8.45833 15.7084H4.83333C3.55145 15.7084 2.32208 16.2176 1.41565 17.124C0.509225 18.0305 0 19.2598 0 20.5417L0 24.1667C0 25.4486 0.509225 26.678 1.41565 27.5844C2.32208 28.4908 3.55145 29 4.83333 29H8.45833C9.74021 29 10.9696 28.4908 11.876 27.5844C12.7824 26.678 13.2917 25.4486 13.2917 24.1667V20.5417C13.2917 19.2598 12.7824 18.0305 11.876 17.124C10.9696 16.2176 9.74021 15.7084 8.45833 15.7084ZM10.875 24.1667C10.875 24.8076 10.6204 25.4223 10.1672 25.8755C9.71396 26.3288 9.09927 26.5834 8.45833 26.5834H4.83333C4.19239 26.5834 3.5777 26.3288 3.12449 25.8755C2.67128 25.4223 2.41667 24.8076 2.41667 24.1667V20.5417C2.41667 19.9008 2.67128 19.2861 3.12449 18.8329C3.5777 18.3797 4.19239 18.125 4.83333 18.125H8.45833C9.09927 18.125 9.71396 18.3797 10.1672 18.8329C10.6204 19.2861 10.875 19.9008 10.875 20.5417V24.1667Z" fill="#1C6FFF"/>
<path d="M24.1666 15.7084H20.5416C19.2597 15.7084 18.0303 16.2176 17.1239 17.124C16.2175 18.0305 15.7083 19.2598 15.7083 20.5417V24.1667C15.7083 25.4486 16.2175 26.678 17.1239 27.5844C18.0303 28.4908 19.2597 29 20.5416 29H24.1666C25.4485 29 26.6778 28.4908 27.5843 27.5844C28.4907 26.678 28.9999 25.4486 28.9999 24.1667V20.5417C28.9999 19.2598 28.4907 18.0305 27.5843 17.124C26.6778 16.2176 25.4485 15.7084 24.1666 15.7084ZM26.5833 24.1667C26.5833 24.8076 26.3286 25.4223 25.8754 25.8755C25.4222 26.3288 24.8075 26.5834 24.1666 26.5834H20.5416C19.9006 26.5834 19.286 26.3288 18.8327 25.8755C18.3795 25.4223 18.1249 24.8076 18.1249 24.1667V20.5417C18.1249 19.9008 18.3795 19.2861 18.8327 18.8329C19.286 18.3797 19.9006 18.125 20.5416 18.125H24.1666C24.8075 18.125 25.4222 18.3797 25.8754 18.8329C26.3286 19.2861 26.5833 19.9008 26.5833 20.5417V24.1667Z" fill="#1C6FFF"/>
</g>
<defs>
<clipPath id="clip0_22_180">
<rect width="29" height="29" fill="white"/>
</clipPath>
</defs>
</svg>
