<svg width="29" height="29" viewBox="0 0 29 29" fill="none" xmlns="http://www.w3.org/2000/svg">
<path d="M9.0625 15.7083C7.98706 15.7083 6.93578 15.3894 6.04159 14.792C5.14739 14.1945 4.45046 13.3453 4.03891 12.3517C3.62735 11.3581 3.51967 10.2648 3.72948 9.21003C3.93929 8.15526 4.45716 7.18639 5.21761 6.42594C5.97806 5.66549 6.94693 5.14762 8.0017 4.93782C9.05647 4.72801 10.1498 4.83569 11.1433 5.24724C12.1369 5.65879 12.9861 6.35573 13.5836 7.24992C14.1811 8.14411 14.5 9.1954 14.5 10.2708C14.4984 11.7125 13.925 13.0946 12.9056 14.114C11.8862 15.1333 10.5041 15.7067 9.0625 15.7083ZM9.0625 7.25C8.46504 7.25 7.88099 7.42717 7.38422 7.75911C6.88744 8.09104 6.50025 8.56283 6.27161 9.11481C6.04297 9.6668 5.98315 10.2742 6.09971 10.8602C6.21627 11.4462 6.50398 11.9844 6.92645 12.4069C7.34892 12.8294 7.88718 13.1171 8.47316 13.2336C9.05915 13.3502 9.66654 13.2904 10.2185 13.0617C10.7705 12.8331 11.2423 12.4459 11.5742 11.9491C11.9062 11.4523 12.0833 10.8683 12.0833 10.2708C12.0833 9.46966 11.7651 8.7013 11.1986 8.13478C10.632 7.56827 9.86368 7.25 9.0625 7.25ZM18.125 27.7917V27.1875C18.125 24.784 17.1702 22.4789 15.4707 20.7793C13.7711 19.0798 11.466 18.125 9.0625 18.125C6.65898 18.125 4.35389 19.0798 2.65434 20.7793C0.954796 22.4789 0 24.784 0 27.1875L0 27.7917C0 28.1121 0.127306 28.4195 0.353913 28.6461C0.580519 28.8727 0.887863 29 1.20833 29C1.5288 29 1.83615 28.8727 2.06275 28.6461C2.28936 28.4195 2.41667 28.1121 2.41667 27.7917V27.1875C2.41667 25.4249 3.11685 23.7345 4.36319 22.4882C5.60952 21.2419 7.29992 20.5417 9.0625 20.5417C10.8251 20.5417 12.5155 21.2419 13.7618 22.4882C15.0082 23.7345 15.7083 25.4249 15.7083 27.1875V27.7917C15.7083 28.1121 15.8356 28.4195 16.0622 28.6461C16.2889 28.8727 16.5962 29 16.9167 29C17.2371 29 17.5445 28.8727 17.7711 28.6461C17.9977 28.4195 18.125 28.1121 18.125 27.7917ZM29 21.75C29 20.1172 28.5273 18.5192 27.6391 17.1491C26.7508 15.779 25.485 14.6952 23.9944 14.0287C22.5038 13.3622 20.8521 13.1413 19.2388 13.3929C17.6254 13.6444 16.1194 14.3575 14.9024 15.4461C14.7825 15.5515 14.6846 15.6796 14.6145 15.823C14.5444 15.9664 14.5034 16.1222 14.4938 16.2816C14.4843 16.4409 14.5064 16.6006 14.5589 16.7513C14.6114 16.902 14.6933 17.0409 14.7997 17.1598C14.9062 17.2787 15.0352 17.3754 15.1792 17.4442C15.3233 17.513 15.4795 17.5525 15.6389 17.5606C15.7984 17.5687 15.9578 17.5451 16.108 17.4912C16.2583 17.4373 16.3964 17.3541 16.5143 17.2465C17.3836 16.4691 18.4594 15.9599 19.6117 15.7804C20.7641 15.6009 21.9438 15.7588 23.0084 16.2349C24.073 16.7111 24.977 17.4852 25.6114 18.4638C26.2458 19.4424 26.5833 20.5838 26.5833 21.75C26.5833 22.0705 26.7106 22.3778 26.9372 22.6044C27.1639 22.831 27.4712 22.9583 27.7917 22.9583C28.1121 22.9583 28.4195 22.831 28.6461 22.6044C28.8727 22.3778 29 22.0705 29 21.75ZM21.1458 10.875C20.0704 10.875 19.0191 10.5561 18.1249 9.95862C17.2307 9.36114 16.5338 8.51192 16.1222 7.51834C15.7107 6.52477 15.603 5.43147 15.8128 4.3767C16.0226 3.32193 16.5405 2.35306 17.3009 1.59261C18.0614 0.832161 19.0303 0.31429 20.085 0.104482C21.1398 -0.105325 22.2331 0.00235599 23.2267 0.413908C24.2202 0.825459 25.0695 1.5224 25.667 2.41659C26.2644 3.31078 26.5833 4.36207 26.5833 5.4375C26.5817 6.87913 26.0083 8.26125 24.989 9.28063C23.9696 10.3 22.5875 10.8734 21.1458 10.875ZM21.1458 2.41667C20.5484 2.41667 19.9643 2.59384 19.4675 2.92577C18.9708 3.2577 18.5836 3.72949 18.3549 4.28148C18.1263 4.83346 18.0665 5.44085 18.183 6.02684C18.2996 6.61282 18.5873 7.15108 19.0098 7.57355C19.4323 7.99603 19.9705 8.28373 20.5565 8.40029C21.1425 8.51685 21.7499 8.45703 22.3019 8.22839C22.8538 7.99975 23.3256 7.61256 23.6576 7.11579C23.9895 6.61901 24.1667 6.03497 24.1667 5.4375C24.1667 4.63633 23.8484 3.86797 23.2819 3.30145C22.7154 2.73493 21.947 2.41667 21.1458 2.41667Z" fill="#393939"/>
</svg>
