<svg width="30" height="29" viewBox="0 0 30 29" fill="none" xmlns="http://www.w3.org/2000/svg">
<path d="M23.75 4.83333H22.375C22.0849 3.46962 21.3173 2.24429 20.2016 1.36387C19.0859 0.483442 17.6903 0.00175755 16.25 0L13.75 0C12.3097 0.00175755 10.9141 0.483442 9.79844 1.36387C8.68272 2.24429 7.91512 3.46962 7.625 4.83333H6.25C4.59301 4.83525 3.00445 5.4724 1.83277 6.60502C0.661102 7.73763 0.00198482 9.27324 0 10.875L0 22.9583C0.00198482 24.5601 0.661102 26.0957 1.83277 27.2283C3.00445 28.3609 4.59301 28.9981 6.25 29H23.75C25.407 28.9981 26.9956 28.3609 28.1672 27.2283C29.3389 26.0957 29.998 24.5601 30 22.9583V10.875C29.998 9.27324 29.3389 7.73763 28.1672 6.60502C26.9956 5.4724 25.407 4.83525 23.75 4.83333ZM13.75 2.41667H16.25C17.0228 2.41976 17.7758 2.6536 18.4059 3.08619C19.036 3.51878 19.5124 4.12899 19.77 4.83333H10.23C10.4876 4.12899 10.964 3.51878 11.5941 3.08619C12.2242 2.6536 12.9772 2.41976 13.75 2.41667ZM6.25 7.25H23.75C24.7446 7.25 25.6984 7.63192 26.4017 8.31174C27.1049 8.99156 27.5 9.91359 27.5 10.875V14.5H2.5V10.875C2.5 9.91359 2.89509 8.99156 3.59835 8.31174C4.30161 7.63192 5.25544 7.25 6.25 7.25ZM23.75 26.5833H6.25C5.25544 26.5833 4.30161 26.2014 3.59835 25.5216C2.89509 24.8418 2.5 23.9197 2.5 22.9583V16.9167H13.75V18.125C13.75 18.4455 13.8817 18.7528 14.1161 18.9794C14.3505 19.206 14.6685 19.3333 15 19.3333C15.3315 19.3333 15.6495 19.206 15.8839 18.9794C16.1183 18.7528 16.25 18.4455 16.25 18.125V16.9167H27.5V22.9583C27.5 23.9197 27.1049 24.8418 26.4017 25.5216C25.6984 26.2014 24.7446 26.5833 23.75 26.5833Z" fill="#393939"/>
</svg>
