<svg width="29" height="29" viewBox="0 0 29 29" fill="none" xmlns="http://www.w3.org/2000/svg">
<g clip-path="url(#clip0_22_170)">
<path d="M27.7917 26.5833H6.04167C5.08026 26.5833 4.15822 26.2014 3.4784 25.5216C2.79859 24.8418 2.41667 23.9197 2.41667 22.9583V1.20833C2.41667 0.887863 2.28936 0.580519 2.06275 0.353913C1.83615 0.127306 1.5288 0 1.20833 0C0.887863 0 0.580519 0.127306 0.353913 0.353913C0.127306 0.580519 0 0.887863 0 1.20833L0 22.9583C0.00191866 24.5601 0.639066 26.0957 1.77168 27.2283C2.9043 28.3609 4.43991 28.9981 6.04167 29H27.7917C28.1121 29 28.4195 28.8727 28.6461 28.6461C28.8727 28.4195 29 28.1121 29 27.7917C29 27.4712 28.8727 27.1639 28.6461 26.9372C28.4195 26.7106 28.1121 26.5833 27.7917 26.5833Z" fill="#393939"/>
<path d="M7.25008 24.1667C7.57055 24.1667 7.8779 24.0394 8.1045 23.8128C8.33111 23.5862 8.45841 23.2788 8.45841 22.9584V14.5C8.45841 14.1796 8.33111 13.8722 8.1045 13.6456C7.8779 13.419 7.57055 13.2917 7.25008 13.2917C6.92961 13.2917 6.62227 13.419 6.39566 13.6456C6.16905 13.8722 6.04175 14.1796 6.04175 14.5V22.9584C6.04175 23.2788 6.16905 23.5862 6.39566 23.8128C6.62227 24.0394 6.92961 24.1667 7.25008 24.1667Z" fill="#393939"/>
<path d="M12.0833 12.0833V22.9583C12.0833 23.2788 12.2106 23.5861 12.4372 23.8128C12.6638 24.0394 12.9711 24.1667 13.2916 24.1667C13.6121 24.1667 13.9194 24.0394 14.146 23.8128C14.3726 23.5861 14.4999 23.2788 14.4999 22.9583V12.0833C14.4999 11.7629 14.3726 11.4555 14.146 11.2289C13.9194 11.0023 13.6121 10.875 13.2916 10.875C12.9711 10.875 12.6638 11.0023 12.4372 11.2289C12.2106 11.4555 12.0833 11.7629 12.0833 12.0833Z" fill="#393939"/>
<path d="M18.125 15.7083V22.9583C18.125 23.2788 18.2523 23.5861 18.4789 23.8128C18.7055 24.0394 19.0129 24.1667 19.3333 24.1667C19.6538 24.1667 19.9611 24.0394 20.1878 23.8128C20.4144 23.5861 20.5417 23.2788 20.5417 22.9583V15.7083C20.5417 15.3879 20.4144 15.0805 20.1878 14.8539C19.9611 14.6273 19.6538 14.5 19.3333 14.5C19.0129 14.5 18.7055 14.6273 18.4789 14.8539C18.2523 15.0805 18.125 15.3879 18.125 15.7083Z" fill="#393939"/>
<path d="M24.1667 10.875V22.9584C24.1667 23.2788 24.2941 23.5862 24.5207 23.8128C24.7473 24.0394 25.0546 24.1667 25.3751 24.1667C25.6956 24.1667 26.0029 24.0394 26.2295 23.8128C26.4561 23.5862 26.5834 23.2788 26.5834 22.9584V10.875C26.5834 10.5546 26.4561 10.2472 26.2295 10.0206C26.0029 9.79399 25.6956 9.66669 25.3751 9.66669C25.0546 9.66669 24.7473 9.79399 24.5207 10.0206C24.2941 10.2472 24.1667 10.5546 24.1667 10.875Z" fill="#393939"/>
<path d="M7.25007 10.875C7.57051 10.8749 7.87781 10.7476 8.10436 10.5209L12.4374 6.18786C12.6678 5.96846 12.9736 5.84607 13.2917 5.84607C13.6098 5.84607 13.9157 5.96846 14.146 6.18786L16.7705 8.81236C17.4503 9.49194 18.3722 9.87371 19.3334 9.87371C20.2946 9.87371 21.2165 9.49194 21.8963 8.81236L28.646 2.06261C28.8661 1.83471 28.9879 1.52949 28.9852 1.21267C28.9824 0.895844 28.8553 0.592779 28.6313 0.368744C28.4073 0.144709 28.1042 0.0176303 27.7874 0.0148772C27.4706 0.0121241 27.1653 0.133917 26.9374 0.354025L20.1877 7.10257C19.9611 7.32909 19.6538 7.45635 19.3334 7.45635C19.013 7.45635 18.7057 7.32909 18.4791 7.10257L15.8546 4.47928C15.1748 3.79969 14.253 3.41792 13.2917 3.41792C12.3305 3.41792 11.4086 3.79969 10.7289 4.47928L6.39578 8.81236C6.22684 8.98135 6.1118 9.19663 6.0652 9.43099C6.01859 9.66535 6.04252 9.90826 6.13396 10.129C6.22539 10.3498 6.38023 10.5385 6.57889 10.6713C6.77755 10.804 7.01112 10.8749 7.25007 10.875Z" fill="#393939"/>
</g>
<defs>
<clipPath id="clip0_22_170">
<rect width="29" height="29" fill="white"/>
</clipPath>
</defs>
</svg>
