<svg width="134" height="30" viewBox="0 0 134 30" fill="none" xmlns="http://www.w3.org/2000/svg">
<path d="M0.898759 23.4876C0.65909 23.4876 0.449379 23.3977 0.269628 23.2179C0.0898759 23.0382 0 22.8285 0 22.5888V1.91735C0 1.67768 0.0898759 1.46797 0.269628 1.28822C0.449379 1.10847 0.65909 1.01859 0.898759 1.01859H15.219C15.4786 1.01859 15.6883 1.10847 15.8481 1.28822C16.0279 1.448 16.1177 1.65771 16.1177 1.91735V4.64359C16.1177 4.90323 16.0279 5.12292 15.8481 5.30268C15.6883 5.48243 15.4786 5.5723 15.219 5.5723H4.55371V9.64668H13.3915C13.6511 9.64668 13.8708 9.73655 14.0506 9.9163C14.2303 10.0761 14.3202 10.2858 14.3202 10.5454V13.2717C14.3202 13.5313 14.2303 13.751 14.0506 13.9308C13.8708 14.1105 13.6511 14.2004 13.3915 14.2004H4.55371V18.9339H15.219C15.4786 18.9339 15.6883 19.0237 15.8481 19.2035C16.0279 19.3633 16.1177 19.573 16.1177 19.8326V22.5888C16.1177 22.8285 16.0279 23.0382 15.8481 23.2179C15.6883 23.3977 15.4786 23.4876 15.219 23.4876H0.898759Z" fill="#1C6FFF"/>
<path d="M25.0412 23.9369C24.2024 23.877 23.3735 23.6673 22.5546 23.3078C21.7358 22.9283 20.9968 22.409 20.3377 21.75C19.6986 21.0909 19.1793 20.272 18.7798 19.2934C18.3804 18.3147 18.1707 17.1763 18.1507 15.8781V14.47H18.1807C18.2406 13.2317 18.4703 12.1532 18.8697 11.2345C19.2891 10.3158 19.8184 9.53683 20.4575 8.89771C21.0966 8.25859 21.8157 7.76927 22.6145 7.42974C23.4134 7.07023 24.2223 6.86052 25.0412 6.80061C25.94 6.72072 26.8587 6.81059 27.7974 7.07023C28.7361 7.32988 29.5949 7.75928 30.3738 8.35846C30.6335 8.01893 30.943 7.7493 31.3025 7.54957C31.682 7.34985 32.1014 7.24999 32.5608 7.24999H33.2499C33.5295 7.24999 33.7791 7.35983 33.9988 7.57953C34.2185 7.79923 34.3284 8.05887 34.3284 8.35846V22.5588C34.3284 22.8185 34.2385 23.0382 34.0587 23.2179C33.879 23.3977 33.6593 23.4876 33.3997 23.4876H32.8304C32.2512 23.4876 31.5822 22.9982 30.8232 22.0196C30.0842 22.6987 29.2654 23.188 28.3666 23.4876C27.4678 23.8071 26.5691 23.9669 25.6703 23.9669C25.5705 23.9669 25.4606 23.9669 25.3408 23.9669C25.2409 23.9669 25.1411 23.9569 25.0412 23.9369ZM26.2695 11.0547C25.8101 11.0547 25.3608 11.1246 24.9214 11.2644C24.482 11.4042 24.0825 11.614 23.723 11.8936C23.3835 12.1732 23.1039 12.5227 22.8842 12.9421C22.6845 13.3615 22.5846 13.8509 22.5846 14.4101V16.3274C22.5846 16.8867 22.6845 17.376 22.8842 17.7954C23.1039 18.2148 23.3835 18.5644 23.723 18.844C24.0825 19.1236 24.482 19.3333 24.9214 19.4731C25.3608 19.6129 25.8101 19.6828 26.2695 19.6828C27.2881 19.6828 28.1369 19.3932 28.816 18.814C29.515 18.2148 29.8645 17.386 29.8645 16.3274V14.4101C29.8645 13.3516 29.515 12.5327 28.816 11.9535C28.1369 11.3543 27.2881 11.0547 26.2695 11.0547Z" fill="#1C6FFF"/>
<path d="M36.9647 11.3843C36.9647 10.6253 37.1345 9.95625 37.474 9.37705C37.8136 8.79785 38.2629 8.31851 38.8222 7.93903C39.3814 7.53959 40.0205 7.24 40.7395 7.04028C41.4585 6.84055 42.1975 6.74069 42.9565 6.74069C44.0549 6.74069 45.1135 6.96039 46.1321 7.39978C47.1507 7.83917 47.9296 8.49826 48.4688 9.37705C48.6086 9.59675 48.6386 9.82643 48.5587 10.0661C48.4988 10.3058 48.359 10.4855 48.1393 10.6054L46.7912 11.4142C46.6913 11.4941 46.5515 11.5341 46.3717 11.5341C46.1121 11.5341 45.8824 11.4342 45.6827 11.2345C45.3631 10.875 44.9537 10.6153 44.4544 10.4556C43.9551 10.2758 43.4558 10.1859 42.9565 10.1859C42.4172 10.1859 41.9478 10.2858 41.5484 10.4855C41.1489 10.6852 40.9492 10.9748 40.9492 11.3543C40.9492 11.7538 41.1589 12.0833 41.5784 12.343C42.0178 12.5826 42.587 12.8123 43.286 13.032C44.4244 13.3915 45.3731 13.771 46.1321 14.1704C46.911 14.5699 47.5301 15.0093 47.9895 15.4886C48.4688 15.948 48.8084 16.4573 49.0081 17.0165C49.2278 17.5757 49.3376 18.2049 49.3376 18.9039C49.3376 19.7028 49.1579 20.4218 48.7984 21.0609C48.4389 21.6801 47.9595 22.2093 47.3604 22.6487C46.7612 23.0681 46.0721 23.3877 45.2932 23.6074C44.5343 23.8271 43.7454 23.9369 42.9265 23.9369C42.2474 23.9369 41.5784 23.8571 40.9193 23.6973C40.2602 23.5375 39.631 23.3078 39.0319 23.0082C38.4527 22.6887 37.9234 22.2892 37.4441 21.8099C36.9847 21.3106 36.6152 20.7314 36.3356 20.0723C36.2357 19.8326 36.2357 19.5929 36.3356 19.3533C36.4554 19.0936 36.6452 18.9239 36.9048 18.844L39.1517 18.125C39.3714 18.0651 39.5811 18.085 39.7808 18.1849C40.0005 18.2847 40.1603 18.4445 40.2602 18.6642C40.5198 19.2035 40.8893 19.6029 41.3686 19.8626C41.848 20.1022 42.3373 20.2221 42.8366 20.2221C43.3759 20.2221 43.8552 20.0922 44.2746 19.8326C44.6941 19.553 44.9038 19.1635 44.9038 18.6642C44.9038 18.1649 44.6042 17.7255 44.005 17.346C43.4258 16.9466 42.6369 16.5571 41.6383 16.1777C41.079 15.958 40.5198 15.7183 39.9606 15.4587C39.4014 15.199 38.8921 14.8894 38.4327 14.5299C37.9933 14.1505 37.6338 13.7111 37.3542 13.2118C37.0945 12.6925 36.9647 12.0833 36.9647 11.3843Z" fill="#1C6FFF"/>
<path d="M67.5331 7.27995C67.8726 7.27995 68.1322 7.41975 68.312 7.69937C68.4917 7.97898 68.5117 8.27857 68.3719 8.59812L59.2345 28.251C59.1347 28.4906 58.9749 28.6804 58.7552 28.8202C58.5355 28.98 58.2858 29.0599 58.0062 29.0599H55.1901C54.8506 29.0599 54.5909 28.9201 54.4112 28.6404C54.2314 28.3608 54.2115 28.0612 54.3513 27.7417L57.0775 21.8698L50.6064 8.59812C50.4467 8.29854 50.4566 8.00894 50.6364 7.72933C50.8161 7.42974 51.0758 7.27995 51.4153 7.27995H54.2314C54.511 7.27995 54.7607 7.34985 54.9804 7.48966C55.2001 7.62946 55.3599 7.8192 55.4597 8.05887L59.594 16.4772L63.4587 8.08883C63.5785 7.84916 63.7483 7.65942 63.968 7.51961C64.1877 7.35984 64.4373 7.27995 64.7169 7.27995H67.5331Z" fill="#1C6FFF"/>
<path d="M79.0203 23.9669C78.1216 23.9669 77.2228 23.8071 76.3241 23.4876C75.4453 23.188 74.6364 22.7086 73.8974 22.0495C73.1185 23.0082 72.4494 23.4876 71.8902 23.4876H71.291C71.0513 23.4876 70.8416 23.3977 70.6619 23.2179C70.4821 23.0382 70.3922 22.8185 70.3922 22.5588V0.89876C70.3922 0.639118 70.4821 0.429407 70.6619 0.269628C70.8416 0.0898759 71.0513 0 71.291 0H73.9274C74.187 0 74.3967 0.0898759 74.5565 0.269628C74.7362 0.429407 74.8261 0.639118 74.8261 0.89876V7.99895C75.5851 7.53959 76.374 7.21004 77.1928 7.01032C78.0317 6.81059 78.8506 6.74069 79.6495 6.80061C80.4883 6.8805 81.3072 7.10019 82.1061 7.4597C82.905 7.79923 83.624 8.28855 84.2631 8.92767C84.9022 9.54681 85.4215 10.3257 85.8209 11.2644C86.2403 12.1832 86.48 13.2617 86.5399 14.5H86.5699V15.8781H86.5399C86.5399 17.1763 86.3402 18.3147 85.9408 19.2934C85.5413 20.272 85.012 21.0909 84.353 21.75C83.7138 22.409 82.9848 22.9283 82.166 23.3078C81.3471 23.6673 80.5083 23.877 79.6495 23.9369C79.5496 23.9569 79.4397 23.9669 79.3199 23.9669C79.22 23.9669 79.1202 23.9669 79.0203 23.9669ZM78.4212 11.1746C78.0017 11.1746 77.5723 11.2445 77.1329 11.3843C76.7135 11.5041 76.324 11.7038 75.9645 11.9834C75.625 12.2631 75.3454 12.6126 75.1257 13.032C74.926 13.4514 74.8261 13.9507 74.8261 14.5299V16.2076C74.8261 16.7868 74.926 17.2861 75.1257 17.7055C75.3454 18.125 75.625 18.4745 75.9645 18.7541C76.324 19.0337 76.7135 19.2434 77.1329 19.3832C77.5723 19.523 78.0017 19.5929 78.4212 19.5929C78.9205 19.5929 79.3898 19.5131 79.8292 19.3533C80.2886 19.1935 80.678 18.9738 80.9976 18.6942C81.3371 18.3946 81.6067 18.0351 81.8065 17.6157C82.0062 17.1962 82.1061 16.7269 82.1061 16.2076V14.5599C82.1061 14.0406 82.0062 13.5713 81.8065 13.1518C81.6067 12.7324 81.3371 12.3829 80.9976 12.1033C80.678 11.8037 80.2886 11.574 79.8292 11.4142C79.3898 11.2545 78.9205 11.1746 78.4212 11.1746Z" fill="#1C6FFF"/>
<path d="M115.517 23.9669C114.458 23.9669 113.53 23.7971 112.731 23.4576C111.952 23.1181 111.303 22.6787 110.783 22.1394C110.264 21.6002 109.875 21.001 109.615 20.3419C109.355 19.6828 109.226 19.0237 109.226 18.3646V11.2345H107.099C106.859 11.2345 106.649 11.1546 106.469 10.9948C106.29 10.8151 106.2 10.5954 106.2 10.3357V8.1787C106.2 7.91906 106.29 7.69937 106.469 7.51961C106.649 7.33986 106.859 7.24999 107.099 7.24999H109.226V4.31404C109.226 4.0544 109.306 3.84469 109.465 3.68491C109.645 3.50516 109.865 3.41528 110.124 3.41528H112.761C113 3.41528 113.21 3.50516 113.39 3.68491C113.57 3.84469 113.66 4.0544 113.66 4.31404V7.24999H117.284C117.524 7.24999 117.734 7.33986 117.914 7.51961C118.093 7.69937 118.183 7.91906 118.183 8.1787V10.3357C118.183 10.5954 118.093 10.8151 117.914 10.9948C117.734 11.1546 117.524 11.2345 117.284 11.2345H113.66V17.0764C113.66 17.2961 113.679 17.5458 113.719 17.8254C113.779 18.105 113.869 18.3746 113.989 18.6343C114.129 18.8939 114.319 19.1136 114.558 19.2934C114.818 19.4531 115.137 19.533 115.517 19.533C115.896 19.533 116.226 19.4931 116.506 19.4132C116.785 19.3133 117.025 19.2035 117.225 19.0836C117.364 19.0038 117.524 18.9638 117.704 18.9638C118.043 18.9638 118.303 19.1036 118.483 19.3832L119.771 21.4204C119.891 21.6201 119.931 21.8398 119.891 22.0795C119.871 22.2992 119.761 22.479 119.561 22.6188C118.982 23.0582 118.343 23.3877 117.644 23.6074C116.945 23.8471 116.236 23.9669 115.517 23.9669Z" fill="#1C6FFF"/>
<path d="M121.627 11.3843C121.627 10.6253 121.797 9.95625 122.136 9.37705C122.476 8.79785 122.925 8.31851 123.485 7.93903C124.044 7.53959 124.683 7.24 125.402 7.04028C126.121 6.84055 126.86 6.74069 127.619 6.74069C128.717 6.74069 129.776 6.96039 130.794 7.39978C131.813 7.83917 132.592 8.49826 133.131 9.37705C133.271 9.59675 133.301 9.82643 133.221 10.0661C133.161 10.3058 133.021 10.4855 132.802 10.6054L131.454 11.4142C131.354 11.4941 131.214 11.5341 131.034 11.5341C130.774 11.5341 130.545 11.4342 130.345 11.2345C130.026 10.875 129.616 10.6153 129.117 10.4556C128.617 10.2758 128.118 10.1859 127.619 10.1859C127.08 10.1859 126.61 10.2858 126.211 10.4855C125.811 10.6852 125.612 10.9748 125.612 11.3543C125.612 11.7538 125.821 12.0833 126.241 12.343C126.68 12.5826 127.249 12.8123 127.948 13.032C129.087 13.3915 130.035 13.771 130.794 14.1704C131.573 14.5699 132.193 15.0093 132.652 15.4886C133.131 15.948 133.471 16.4573 133.67 17.0165C133.89 17.5757 134 18.2049 134 18.9039C134 19.7028 133.82 20.4218 133.461 21.0609C133.101 21.6801 132.622 22.2093 132.023 22.6487C131.424 23.0681 130.735 23.3877 129.956 23.6074C129.197 23.8271 128.408 23.9369 127.589 23.9369C126.91 23.9369 126.241 23.8571 125.582 23.6973C124.923 23.5375 124.293 23.3078 123.694 23.0082C123.115 22.6887 122.586 22.2892 122.106 21.8099C121.647 21.3106 121.278 20.7314 120.998 20.0723C120.898 19.8326 120.898 19.5929 120.998 19.3533C121.118 19.0936 121.308 18.9239 121.567 18.844L123.814 18.125C124.034 18.0651 124.243 18.085 124.443 18.1849C124.663 18.2847 124.823 18.4445 124.923 18.6642C125.182 19.2035 125.552 19.6029 126.031 19.8626C126.51 20.1022 127 20.2221 127.499 20.2221C128.038 20.2221 128.518 20.0922 128.937 19.8326C129.356 19.553 129.566 19.1635 129.566 18.6642C129.566 18.1649 129.267 17.7255 128.667 17.346C128.088 16.9466 127.299 16.5571 126.301 16.1777C125.741 15.958 125.182 15.7183 124.623 15.4587C124.064 15.199 123.554 14.8894 123.095 14.5299C122.656 14.1505 122.296 13.7111 122.017 13.2118C121.757 12.6925 121.627 12.0833 121.627 11.3843Z" fill="#1C6FFF"/>
<circle cx="96.6166" cy="15.2489" r="11.2345" fill="black"/>
<path d="M96.6166 8.03394C97.4322 8.03394 98.2394 8.17541 99.0383 8.45835C99.8372 8.72465 100.553 9.14074 101.185 9.70663C101.834 10.2559 102.359 10.9632 102.758 11.8287C103.158 12.6942 103.357 13.7178 103.357 14.8995V15.3488C103.357 16.5472 103.149 17.5874 102.733 18.4695C102.334 19.3516 101.809 20.084 101.16 20.6665C100.511 21.2324 99.7706 21.6568 98.9384 21.9397C98.1229 22.2227 97.299 22.3641 96.4668 22.3641C95.6679 22.3641 94.8607 22.231 94.0452 21.9647C93.2463 21.6818 92.5306 21.2657 91.8981 20.7164C91.2657 20.1505 90.7497 19.4349 90.3503 18.5694C89.9508 17.7039 89.7511 16.6886 89.7511 15.5236V15.0492C89.7511 13.8509 89.9508 12.8107 90.3503 11.9286C90.7664 11.0464 91.299 10.3224 91.9481 9.75656C92.5972 9.17403 93.3295 8.74129 94.145 8.45835C94.9772 8.17541 95.8011 8.03394 96.6166 8.03394ZM99.7872 14.5C99.7872 14.0506 99.6874 13.6512 99.4876 13.3017C99.3046 12.9521 99.0549 12.6609 98.7387 12.4279C98.4391 12.1782 98.0896 11.9951 97.6901 11.8786C97.3073 11.7621 96.9162 11.7039 96.5168 11.7039C96.1339 11.7039 95.7511 11.7621 95.3683 11.8786C94.9855 11.9785 94.636 12.1449 94.3198 12.3779C94.0202 12.6109 93.7705 12.9022 93.5708 13.2517C93.3877 13.6012 93.2962 14.0173 93.2962 14.5V15.8981C93.2962 16.3641 93.3877 16.7719 93.5708 17.1214C93.7705 17.4709 94.0202 17.7622 94.3198 17.9952C94.636 18.2282 94.9855 18.4029 95.3683 18.5195C95.7678 18.636 96.1756 18.6942 96.5917 18.6942C96.9745 18.6942 97.3573 18.6443 97.7401 18.5444C98.1229 18.4279 98.4641 18.2532 98.7637 18.0201C99.0632 17.7871 99.3046 17.4959 99.4876 17.1464C99.6874 16.7968 99.7872 16.3807 99.7872 15.8981V14.5Z" fill="#1C6FFF"/>
<rect x="89.6984" y="8.03271" width="13.6312" height="14.3615" rx="6.81562" fill="#1C6FFF"/>
<rect x="93.3497" y="11.684" width="6.57221" height="7.05904" rx="3.2861" fill="black"/>
<circle cx="91.6473" cy="10.1487" r="2.74621" fill="white"/>
</svg>
